<svg width="445" height="327" viewBox="0 0 445 327" fill="none" xmlns="http://www.w3.org/2000/svg">
<path d="M167 317.709C246.529 317.709 311 250.522 311 167.643C311 84.7637 246.529 17.5769 167 17.5769C87.471 17.5769 23 84.7637 23 167.643C23 250.522 87.471 317.709 167 317.709Z" fill="#F2F2F2"/>
<path d="M190.108 190.525C158.401 241.461 167.089 306.245 167.089 306.245C167.089 306.245 227.184 288.446 258.892 237.509C290.599 186.573 281.911 121.789 281.911 121.789C281.911 121.789 221.816 139.589 190.108 190.525Z" fill="#3F3D56"/>
<path d="M166.991 305.203C166.991 305.203 166.215 305.075 164.786 304.775C163.646 304.535 162.077 304.192 160.16 303.721C143.029 299.532 97.4849 285.37 67.7083 248.138C30.4401 201.515 32.0095 136.379 32.0095 136.379C32.0095 136.379 88.9938 145.983 126.543 187.851C128.17 189.65 129.753 191.514 131.292 193.445C163.72 234.01 166.743 288.592 166.983 302.085C167.016 304.107 166.991 305.203 166.991 305.203Z" fill="#222F65"/>
<path fill-rule="evenodd" clip-rule="evenodd" d="M143.892 190.525C175.599 241.461 166.911 306.245 166.911 306.245C166.911 306.245 106.816 288.446 75.1083 237.509C43.4009 186.573 52.0888 121.789 52.0888 121.789C52.0888 121.789 112.184 139.589 143.892 190.525Z" stroke="#3F3D56" stroke-width="2"/>
<path opacity="0.1" d="M167 303.177C166.16 304.235 165.419 305.138 164.81 305.878C163.459 307.487 162.693 308.33 162.693 308.33C162.693 308.33 161.763 307.108 160.199 304.82C151.61 292.314 123.984 247.844 126.117 196.476C126.232 193.784 126.422 191.12 126.685 188.485C128.307 190.292 129.886 192.164 131.42 194.102C163.747 234.83 166.761 289.63 167 303.177Z" fill="black"/>
<path d="M214.883 200.241C212.355 260.962 168.922 308.329 168.922 308.329C168.922 308.329 129.588 257.25 132.117 196.529C134.645 135.809 178.078 88.4412 178.078 88.4412C178.078 88.4412 217.412 139.521 214.883 200.241Z" fill="#222F65"/>
<path d="M169 306.245L178 90.5256" stroke="#3F3D56" stroke-width="2"/>
<path d="M222.5 326.046C345.383 326.046 445 319.514 445 311.456C445 303.398 345.383 296.866 222.5 296.866C99.6166 296.866 0 303.398 0 311.456C0 319.514 99.6166 326.046 222.5 326.046Z" fill="#3F3D56"/>
<path d="M37 306.245V247.886Z" fill="#3F3D56"/>
<path d="M37 306.245V247.886" stroke="#3F3D56" stroke-width="2"/>
<path d="M37 256.223C41.4183 256.223 45 252.49 45 247.886C45 243.282 41.4183 239.549 37 239.549C32.5817 239.549 29 243.282 29 247.886C29 252.49 32.5817 256.223 37 256.223Z" fill="#3F3D56"/>
<path d="M37 284.361C37 284.361 35.8837 258.691 13 261.675Z" fill="#3F3D56"/>
<path d="M228 211.412V48.8406Z" fill="#3F3D56"/>
<path d="M228 211.412V48.8406" stroke="#3F3D56" stroke-width="2"/>
<path d="M228 61.3459C234.075 61.3459 239 56.2136 239 49.8826C239 43.5515 234.075 38.4192 228 38.4192C221.925 38.4192 217 43.5515 217 49.8826C217 56.2136 221.925 61.3459 228 61.3459Z" fill="#3F3D56"/>
<path d="M228 95.7359C228 95.7359 226.465 60.7326 195 64.8012Z" fill="#3F3D56"/>
<path d="M358.286 121.789L348.909 140.167C348.909 140.167 281.108 153.669 289.763 174.672C298.419 195.675 308.156 226.429 313.205 225.679C318.254 224.929 346.024 208.427 347.106 203.551C348.188 198.675 322.221 175.797 322.221 175.797L365.138 167.171C365.138 167.171 371.269 197.175 363.335 217.803C355.401 238.431 350.712 294.314 356.122 295.064C361.531 295.814 375.236 300.315 381.367 296.189C387.498 292.064 390.383 201.676 390.383 201.676C390.383 201.676 403.366 142.417 395.432 135.666C387.498 128.915 358.286 121.789 358.286 121.789Z" fill="#2F2E41"/>
<path d="M372.942 286.713C372.942 286.713 364.564 282.102 362.8 285.791C362.8 285.791 364.123 296.856 358.831 298.239C353.539 299.622 351.334 309.303 358.831 310.226C366.327 311.148 371.178 308.381 373.824 308.381C376.47 308.381 373.824 298.7 373.824 298.7L372.942 286.713Z" fill="#2F2E41"/>
<path d="M332.965 211.24C332.965 211.24 323.836 208.572 322.855 212.58C322.855 212.58 326.383 223.14 321.485 225.667C316.586 228.195 316.384 238.179 323.905 237.425C331.426 236.671 335.614 232.884 338.203 232.299C340.791 231.713 336.248 222.802 336.248 222.802L332.965 211.24Z" fill="#2F2E41"/>
<path d="M378.395 57.0301C378.395 57.0301 378.752 71.0258 376.258 72.1606C373.765 73.2954 390.15 80.1041 390.15 80.1041L393 74.8085C393 74.8085 389.794 55.8953 390.507 54.3823C391.219 52.8692 378.395 57.0301 378.395 57.0301Z" fill="#9F616A"/>
<path d="M384 60.3039C396.15 60.3039 406 50.0393 406 37.3772C406 24.7151 396.15 14.4504 384 14.4504C371.85 14.4504 362 24.7151 362 37.3772C362 50.0393 371.85 60.3039 384 60.3039Z" fill="#2F2E41"/>
<path d="M386 24.8715C390.971 24.8715 395 20.6723 395 15.4924C395 10.3125 390.971 6.11328 386 6.11328C381.029 6.11328 377 10.3125 377 15.4924C377 20.6723 381.029 24.8715 386 24.8715Z" fill="#2F2E41"/>
<path d="M373.887 10.2817C373.887 5.48005 377.389 1.45392 382 0.953301C381.687 0.919598 381.372 0.902672 381.057 0.902588C376.055 0.902588 372 5.10176 372 10.2817C372 15.4617 376.055 19.6608 381.057 19.6608C381.372 19.6607 381.687 19.6438 382 19.6101C377.389 19.1095 373.887 15.0834 373.887 10.2817V10.2817Z" fill="#2F2E41"/>
<path d="M383 64.4725C391.284 64.4725 398 57.4738 398 48.8406C398 40.2074 391.284 33.2087 383 33.2087C374.716 33.2087 368 40.2074 368 48.8406C368 57.4738 374.716 64.4725 383 64.4725Z" fill="#9F616A"/>
<path d="M394.251 69.4843C394.251 69.4843 381.297 73.5907 374.82 69.4843C368.343 65.378 352.87 77.3237 350.351 82.5499C347.832 87.7761 359.706 93.0024 359.706 93.0024C359.706 93.0024 356.316 103.095 357.008 108.121C357.727 113.347 356.468 123.986 356.468 123.986C356.468 123.986 388.258 145.715 395.33 135.932C396.41 134.439 405.406 99.3485 405.406 99.3485L418 86.2829C418 86.2829 410.084 74.3373 405.406 73.2173C400.728 72.0974 394.251 69.4843 394.251 69.4843Z" fill="#D0CDE1"/>
<path d="M306.937 145.758C306.937 145.758 282.684 159.137 287.677 162.96C292.671 166.782 313 148.052 313 148.052L306.937 145.758Z" fill="#9F616A"/>
<path d="M402.922 136.315C402.922 136.315 391.927 128.273 390.156 132.294C388.386 136.315 402.195 145.369 405.103 141.826C408.01 138.283 402.922 136.315 402.922 136.315Z" fill="#9F616A"/>
<path d="M411.768 81.1465L418.181 85.3028C418.181 85.3028 439.914 117.042 432.433 124.221C424.951 131.4 405.712 145.758 405.712 145.758C405.712 145.758 399.299 135.934 401.436 135.556C403.574 135.179 420.675 120.065 420.675 120.065L405.712 90.5926L411.768 81.1465Z" fill="#D0CDE1"/>
<path d="M354.179 80.1042L349.513 81.991L337.308 105.01L305 146.142C305 146.142 309.308 153.311 312.897 151.802C316.487 150.293 343.41 118.595 343.41 118.595L361 89.9155L354.179 80.1042Z" fill="#D0CDE1"/>
<path d="M384.5 39.4614C393.06 39.4614 400 35.2622 400 30.0822C400 24.9023 393.06 20.7031 384.5 20.7031C375.94 20.7031 369 24.9023 369 30.0822C369 35.2622 375.94 39.4614 384.5 39.4614Z" fill="#2F2E41"/>
<rect x="282" y="233.296" width="71" height="73.9908" fill="#222F65"/>
<path fill-rule="evenodd" clip-rule="evenodd" d="M330.867 284.787C338.301 284.787 343 278.198 343 267.744C343 253.523 332.546 243.718 317.46 243.718C301.766 243.718 291 254.751 291 270.82C291 287.284 301.549 297.893 318.029 297.908C320.885 297.923 323.733 297.601 326.52 296.948C327.65 296.664 328.356 295.491 328.11 294.307C327.863 293.123 326.755 292.36 325.612 292.589C323.181 293.035 320.715 293.252 318.246 293.238C304.691 293.238 295.983 284.575 295.983 271.003C295.983 257.727 304.785 248.346 317.135 248.346C329.621 248.346 338.071 256.204 338.071 267.956C338.071 275.32 335.688 280.061 331.936 280.061C329.77 280.061 328.565 278.692 328.565 276.421V258.179H323.161V262.101H322.62C321.374 259.237 318.544 257.488 315.213 257.488C308.726 257.488 304.284 262.976 304.284 270.862C304.284 279.073 308.699 284.589 315.307 284.589C319.018 284.589 321.78 282.798 323.121 279.525H323.662C324.164 282.671 327.061 284.787 330.867 284.787ZM316.309 279.369C312.477 279.369 310.121 276.209 310.121 270.989C310.121 265.755 312.436 262.679 316.377 262.679C320.345 262.679 322.891 265.853 322.891 270.989C322.891 276.124 320.345 279.369 316.309 279.369Z" fill="white"/>
</svg>
